HIERARCHY
ROOT Hips
{
	OFFSET 0.000000 0.000000 0.000000
	CHANNELS 6 Xposition Yposition Zposition Zrotation Xrotation Yrotation
	JOINT Spine
	{
		OFFSET 0.000000 0.000000 0.100000
		CHANNELS 3 Zrotation Xrotation Yrotation
		JOINT Chest
		{
			OFFSET 0.000000 0.000000 0.150000
			CHANNELS 3 Zrotation Xrotation Yrotation
			JOINT Neck
			{
				OFFSET 0.000000 0.000000 0.100000
				CHANNELS 3 Zrotation Xrotation Yrotation
				JOINT Head
				{
					OFFSET 0.000000 0.000000 0.100000
					CHANNELS 3 Zrotation Xrotation Yrotation
					End Site
					{
						OFFSET 0.0 0.0 0.0
					}
				}
			}
			JOINT LeftShoulder
			{
				OFFSET -0.150000 0.000000 0.000000
				CHANNELS 3 Zrotation Xrotation Yrotation
				JOINT LeftArm
				{
					OFFSET -0.180000 0.000000 0.000000
					CHANNELS 3 Zrotation Xrotation Yrotation
					JOINT LeftForeArm
					{
						OFFSET -0.250000 0.000000 0.000000
						CHANNELS 3 Zrotation Xrotation Yrotation
						JOINT LeftHand
						{
							OFFSET -0.100000 0.000000 0.000000
							CHANNELS 3 Zrotation Xrotation Yrotation
							End Site
							{
								OFFSET 0.0 0.0 0.0
							}
						}
					}
				}
			}
			JOINT RightShoulder
			{
				OFFSET 0.150000 0.000000 0.000000
				CHANNELS 3 Zrotation Xrotation Yrotation
				JOINT RightArm
				{
					OFFSET 0.180000 0.000000 0.000000
					CHANNELS 3 Zrotation Xrotation Yrotation
					JOINT RightForeArm
					{
						OFFSET 0.250000 0.000000 0.000000
						CHANNELS 3 Zrotation Xrotation Yrotation
						JOINT RightHand
						{
							OFFSET 0.100000 0.000000 0.000000
							CHANNELS 3 Zrotation Xrotation Yrotation
							End Site
							{
								OFFSET 0.0 0.0 0.0
							}
						}
					}
				}
			}
		}
	}
	JOINT LeftUpLeg
	{
		OFFSET -0.100000 0.000000 -0.050000
		CHANNELS 3 Zrotation Xrotation Yrotation
		JOINT LeftLeg
		{
			OFFSET 0.000000 0.000000 -0.400000
			CHANNELS 3 Zrotation Xrotation Yrotation
			JOINT LeftFoot
			{
				OFFSET 0.000000 0.050000 -0.400000
				CHANNELS 3 Zrotation Xrotation Yrotation
				JOINT LeftToeBase
				{
					OFFSET 0.000000 0.100000 0.000000
					CHANNELS 3 Zrotation Xrotation Yrotation
					End Site
					{
						OFFSET 0.0 0.0 0.0
					}
				}
			}
		}
	}
	JOINT RightUpLeg
	{
		OFFSET 0.100000 0.000000 -0.050000
		CHANNELS 3 Zrotation Xrotation Yrotation
		JOINT RightLeg
		{
			OFFSET 0.000000 0.000000 -0.400000
			CHANNELS 3 Zrotation Xrotation Yrotation
			JOINT RightFoot
			{
				OFFSET 0.000000 0.050000 -0.400000
				CHANNELS 3 Zrotation Xrotation Yrotation
				JOINT RightToeBase
				{
					OFFSET 0.000000 0.100000 0.000000
					CHANNELS 3 Zrotation Xrotation Yrotation
					End Site
					{
						OFFSET 0.0 0.0 0.0
					}
				}
			}
		}
	}
}
MOTION
Frames: 16
Frame Time: 0.033333
0.090684 0.004494 0.002159 0.000000 0.000000 0.000000 0.000000 -29.541566 1.843963 0.000000 49.628820 -47.268493 0.000000 -55.963019 25.641814 0.000000 0.000000 0.000000 64.967665 0.000000 -38.400514 19.620952 0.000000 -86.940695 -0.451298 0.000000 -105.263226 0.000000 0.000000 0.000000 8.211002 0.000000 -81.053007 -49.016822 0.000000 -53.114116 -62.705693 0.000000 -26.563109 0.000000 0.000000 0.000000 8.494609 113.009933 0.000000 17.564985 -111.639128 0.000000 -22.758210 85.951648 0.000000 0.000000 0.000000 0.000000 -11.259078 -113.469232 0.000000 -9.987278 -100.715346 0.000000 -34.708375 75.667807 0.000000 0.000000 0.000000 0.000000
0.090633 0.004910 0.002526 0.000000 0.000000 0.000000 0.000000 -34.083601 1.767916 0.000000 57.270849 -53.490678 0.000000 -64.206279 29.907224 0.000000 0.000000 0.000000 61.433275 0.000000 -44.397632 9.594962 0.000000 -98.949568 -14.593762 0.000000 -121.104468 0.000000 0.000000 0.000000 22.886880 0.000000 -93.291717 -41.761604 0.000000 -61.859216 -58.263894 0.000000 -31.095399 0.000000 0.000000 0.000000 9.823067 129.358964 0.000000 20.697373 -128.219626 0.000000 -25.837331 98.529803 0.000000 0.000000 0.000000 0.000000 -13.060626 -129.819584 0.000000 -11.340795 -115.512786 0.000000 -38.771983 87.143563 0.000000 0.000000 0.000000 0.000000
0.090514 0.005623 0.002923 0.000000 0.000000 0.000000 0.000000 -37.724000 1.509539 0.000000 64.043964 -58.153040 0.000000 -70.809562 34.087313 0.000000 0.000000 0.000000 58.369235 0.000000 -49.591497 0.299474 0.000000 -109.269270 -26.732585 0.000000 -134.081431 0.000000 0.000000 0.000000 35.058819 0.000000 -102.827726 -36.082726 0.000000 -69.869802 -54.751831 0.000000 -35.339128 0.000000 0.000000 0.000000 11.001743 142.995357 0.000000 23.527128 -141.956435 0.000000 -28.002954 109.062947 0.000000 0.000000 0.000000 0.000000 -14.781526 -144.034522 0.000000 -12.003426 -128.205847 0.000000 -42.307439 97.534530 0.000000 0.000000 0.000000 0.000000
0.089893 0.007199 0.003351 0.000000 0.000000 0.000000 0.000000 -40.371597 1.098452 0.000000 69.745380 -60.976236 0.000000 -75.398282 38.643422 0.000000 0.000000 0.000000 55.811345 0.000000 -54.400957 -7.972275 0.000000 -119.164274 -36.663000 0.000000 -115.307608 0.000000 0.000000 0.000000 44.480337 0.000000 -109.280508 -32.014920 0.000000 -77.091736 -52.719940 0.000000 -38.775256 0.000000 0.000000 0.000000 11.961754 153.616819 0.000000 26.075621 -152.655790 0.000000 -29.790977 117.688900 0.000000 0.000000 0.000000 0.000000 -16.310504 -155.338973 0.000000 -11.740140 -138.327624 0.000000 -45.434100 106.736403 0.000000 0.000000 0.000000 0.000000
0.088411 0.010136 0.003849 0.000000 0.000000 0.000000 0.000000 -43.750961 0.587366 0.000000 77.683507 -64.482904 0.000000 -81.363774 45.356798 0.000000 0.000000 0.000000 52.333193 0.000000 -60.790534 -19.300323 0.000000 -134.769937 -49.666787 0.000000 -114.183447 0.000000 0.000000 0.000000 57.438836 0.000000 -117.818237 -26.936394 0.000000 -87.051366 -50.222691 0.000000 -43.652312 0.000000 0.000000 0.000000 13.117919 167.973777 0.000000 29.623690 -168.005902 0.000000 -32.382226 130.060240 0.000000 0.000000 0.000000 0.000000 -18.129478 -170.344844 0.000000 -11.339073 -152.456322 0.000000 -50.738002 120.764084 0.000000 0.000000 0.000000 0.000000
0.086075 0.014292 0.004249 0.000000 0.000000 0.000000 0.000000 -43.198055 -0.189252 0.000000 79.544642 -61.243146 0.000000 -79.747797 49.838083 0.000000 0.000000 0.000000 52.009142 0.000000 -62.396732 -21.558945 0.000000 -141.122724 -50.789225 0.000000 -102.494081 0.000000 0.000000 0.000000 58.006714 0.000000 -116.216574 -27.324261 0.000000 -90.399223 -51.341953 0.000000 -45.493847 0.000000 0.000000 0.000000 12.970685 167.747022 0.000000 31.032416 -169.682143 0.000000 -33.189035 131.662866 0.000000 0.000000 0.000000 0.000000 -18.357194 -170.730860 0.000000 -9.392925 -153.970641 0.000000 -52.615397 126.265251 0.000000 0.000000 0.000000 0.000000
0.083114 0.019380 0.004484 0.000000 0.000000 0.000000 0.000000 -42.392156 -0.741920 0.000000 81.300988 -58.139749 0.000000 -78.128326 54.418284 0.000000 0.000000 0.000000 51.714970 0.000000 -63.699978 -23.355010 0.000000 -148.315672 -50.802767 0.000000 -99.977835 0.000000 0.000000 0.000000 58.388596 0.000000 -114.519231 -28.424274 0.000000 -93.600886 -52.789720 0.000000 -47.218089 0.000000 0.000000 0.000000 12.596150 167.552138 0.000000 32.011853 -171.347685 0.000000 -35.357821 133.651717 0.000000 0.000000 0.000000 0.000000 -18.378618 -170.904361 0.000000 -7.544369 -155.464688 0.000000 -55.618616 132.251563 0.000000 0.000000 0.000000 0.000000
0.079983 0.024552 0.004561 0.000000 0.000000 0.000000 0.000000 -41.691649 -0.966022 0.000000 82.856183 -55.409134 0.000000 -77.030342 58.279583 0.000000 0.000000 0.000000 51.379328 0.000000 -64.118106 -22.448389 0.000000 -154.792356 -49.018690 0.000000 -108.309908 0.000000 0.000000 0.000000 58.323067 0.000000 -114.168062 -29.114621 0.000000 -95.869282 -53.263048 0.000000 -48.787782 0.000000 0.000000 0.000000 12.020056 167.122665 0.000000 32.541475 -173.317950 0.000000 -37.950357 135.135860 0.000000 0.000000 0.000000 0.000000 -18.219965 -170.907057 0.000000 -6.133418 -156.822313 0.000000 -58.996392 137.503592 0.000000 0.000000 0.000000 0.000000
0.077159 0.029132 0.004548 0.000000 0.000000 0.000000 0.000000 -41.493464 -0.734733 0.000000 83.946425 -53.891600 0.000000 -76.921660 60.620587 0.000000 0.000000 0.000000 51.224049 0.000000 -63.505539 -19.003431 0.000000 -158.896425 -45.715456 0.000000 -123.091080 0.000000 0.000000 0.000000 58.013800 0.000000 -115.082572 -28.364267 0.000000 -97.213558 -52.612929 0.000000 -50.284929 0.000000 0.000000 0.000000 11.428724 166.635266 0.000000 32.592697 -174.884224 0.000000 -39.802330 135.772311 0.000000 0.000000 0.000000 0.000000 -17.795107 -170.631907 0.000000 -5.320315 -157.837485 0.000000 -61.780707 140.859074 0.000000 0.000000 0.000000 0.000000
0.075092 0.032267 0.004516 0.000000 0.000000 0.000000 0.000000 -41.695356 -0.115013 0.000000 84.451350 -53.842857 0.000000 -77.903828 61.081254 0.000000 0.000000 0.000000 51.211094 0.000000 -61.265796 -13.326916 0.000000 -159.545417 -41.749401 0.000000 -139.160873 0.000000 0.000000 0.000000 57.724940 0.000000 -117.346759 -25.956216 0.000000 -97.249796 -51.027850 0.000000 -51.564527 0.000000 0.000000 0.000000 11.079427 166.131552 0.000000 32.137534 -175.868638 0.000000 -40.002919 136.072438 0.000000 0.000000 0.000000 0.000000 -17.150085 -170.043511 0.000000 -5.302407 -158.196818 0.000000 -63.461692 142.313372 0.000000 0.000000 0.000000 0.000000
0.074467 0.033028 0.004458 0.000000 0.000000 0.000000 0.000000 -42.297494 0.754648 0.000000 84.420797 -55.652862 0.000000 -79.741986 59.000768 0.000000 0.000000 0.000000 51.248816 0.000000 -57.847870 -7.312525 0.000000 -155.304667 -38.112088 0.000000 -165.160882 0.000000 0.000000 0.000000 57.340979 0.000000 -119.767078 -23.223192 0.000000 -96.167530 -48.696870 0.000000 -52.140024 0.000000 0.000000 0.000000 11.028384 165.585011 0.000000 31.200120 -175.643635 0.000000 -37.963250 135.680616 0.000000 0.000000 0.000000 0.000000 -16.494399 -169.958675 0.000000 -5.796600 -158.107008 0.000000 -63.761928 141.140724 0.000000 0.000000 0.000000 0.000000
0.075097 0.031405 0.004394 0.000000 0.000000 0.000000 0.000000 -43.068715 1.678235 0.000000 83.601384 -58.773229 0.000000 -81.570208 55.104500 0.000000 0.000000 0.000000 50.880151 0.000000 -54.847494 -4.042593 0.000000 -148.531226 -36.196922 0.000000 -160.336558 0.000000 0.000000 0.000000 56.804572 0.000000 -120.430075 -21.139329 0.000000 -93.034625 -46.759087 0.000000 -51.394934 0.000000 0.000000 0.000000 11.417705 165.496118 0.000000 29.849128 -174.329822 0.000000 -34.060132 134.787269 0.000000 0.000000 0.000000 0.000000 -15.962350 -170.316519 0.000000 -6.272091 -157.571841 0.000000 -62.839249 137.695236 0.000000 0.000000 0.000000 0.000000
0.076678 0.026600 0.004291 0.000000 0.000000 0.000000 0.000000 -43.756486 2.460755 0.000000 80.267875 -62.985774 0.000000 -82.936883 49.171611 0.000000 0.000000 0.000000 50.020996 0.000000 -52.693283 -4.933785 0.000000 -140.576943 -36.957667 0.000000 -156.002274 0.000000 0.000000 0.000000 55.806513 0.000000 -117.631950 -20.711914 0.000000 -88.291624 -45.718582 0.000000 -49.477281 0.000000 0.000000 0.000000 12.032142 165.473194 0.000000 28.403661 -172.981990 0.000000 -28.555604 133.882863 0.000000 0.000000 0.000000 0.000000 -15.263878 -170.356324 0.000000 -6.810094 -156.664342 0.000000 -61.154877 133.400223 0.000000 0.000000 0.000000 0.000000
0.078906 0.018883 0.004173 0.000000 0.000000 0.000000 0.000000 -44.153742 2.826663 0.000000 73.945939 -66.810306 0.000000 -83.265626 42.081226 0.000000 0.000000 0.000000 48.544800 0.000000 -51.823257 -9.932669 0.000000 -132.030689 -40.716592 0.000000 -153.317001 0.000000 0.000000 0.000000 54.531099 0.000000 -111.773805 -22.049015 0.000000 -81.857934 -45.904410 0.000000 -45.727144 0.000000 0.000000 0.000000 12.712832 165.704878 0.000000 27.062653 -171.682545 0.000000 -23.029094 133.665566 0.000000 0.000000 0.000000 0.000000 -14.464442 -170.434639 0.000000 -7.525759 -155.116224 0.000000 -58.889576 129.084141 0.000000 0.000000 0.000000 0.000000
0.081467 0.009351 0.004042 0.000000 0.000000 0.000000 0.000000 -44.282841 2.650242 0.000000 65.590575 -69.890954 0.000000 -82.803888 34.788640 0.000000 0.000000 0.000000 46.540127 0.000000 -52.455276 -18.625810 0.000000 -123.026279 -46.841388 0.000000 -151.829400 0.000000 0.000000 0.000000 52.948907 0.000000 -102.953890 -25.034304 0.000000 -74.899089 -47.442225 0.000000 -41.227863 0.000000 0.000000 0.000000 13.325221 166.280454 0.000000 25.741979 -170.373226 0.000000 -18.637304 134.102521 0.000000 0.000000 0.000000 0.000000 -13.654729 -170.511300 0.000000 -8.497211 -153.066832 0.000000 -56.078295 124.988288 0.000000 0.000000 0.000000 0.000000
0.084241 -0.000660 0.003911 0.000000 0.000000 0.000000 0.000000 -44.122905 2.027008 0.000000 56.548518 -71.858173 0.000000 -81.855394 28.880496 0.000000 0.000000 0.000000 44.707136 0.000000 -53.612555 -25.601690 0.000000 -114.818119 -51.494119 0.000000 -150.423975 0.000000 0.000000 0.000000 51.393395 0.000000 -93.979989 -29.130816 0.000000 -68.738831 -49.392181 0.000000 -36.424556 0.000000 0.000000 0.000000 13.688374 166.891814 0.000000 24.577066 -169.410162 0.000000 -16.114360 134.850996 0.000000 0.000000 0.000000 0.000000 -13.158760 -170.639463 0.000000 -9.699654 -150.758303 0.000000 -52.655184 121.784279 0.000000 0.000000 0.000000 0.000000
